[Header]
FileType HTR
DataType HTRS
FileVersion 1
NumSegments 22
NumFrames 7
DataFrameRate 24
EulerRotationOrder ZYX
CalibrationUnits mm
RotationUnits Degrees
GlobalAxisofGravity Y
BoneLengthAxis Y
ScaleFactor 1.0
[SegmentNames&Hierarchy]
reference	GLOBAL
Hips	reference
Spine	Hips
Spine1	Spine
Neck	Spine1
Head	Neck
LeftShoulder	Spine1
LeftArm	LeftShoulder
LeftForeArm	LeftArm
LeftHand	LeftForeArm
RightShoulder	Spine1
RightArm	RightShoulder
RightForeArm	RightArm
RightHand	RightForeArm
LeftUpLeg	Hips
LeftLeg	LeftUpLeg
LeftFoot	LeftLeg
LeftToeBase	LeftFoot
RightUpLeg	Hips
RightLeg	RightUpLeg
RightFoot	RightLeg
RightToeBase	RightFoot
[BasePosition]
reference	0	0	0	0	0	0	1
Hips	0	0	0	0	0	0	1
Spine	0	0	0	0	-0	90	1
Spine1	0	0	0	0	0	0	1
Neck	0	0	0	-7.352430803	-7.352430803	90	1
Head	0	0	0	0	-0	90	1
LeftShoulder	0	0	0	0	0	0	1
LeftArm	0	0	0	0	0	0	1
LeftForeArm	0	0	0	0	0	0	1
LeftHand	0	0	0	0	0	0	1
RightShoulder	0	0	0	0	-0	180	1
RightArm	0	0	0	0	-0	180	1
RightForeArm	0	0	0	0	-0	180	1
RightHand	0	0	0	0	-0	180	1
LeftUpLeg	0	0	0	0	-0	-90	1
LeftLeg	0	0	0	0	-0	-90	1
LeftFoot	0	0	0	66.57150701	-66.57150701	-90	1
LeftToeBase	0	0	0	0	-90	0	1
RightUpLeg	0	0	0	0	-0	-90	1
RightLeg	0	0	0	0	-0	-90	1
RightFoot	0	0	0	66.57150701	-66.57150701	-90	1
RightToeBase	0	0	0	0	-90	0	1
[reference]
58	0	0	0	0	-0	0	1.0
59	0	0	0	0	-0	0	1.0
60	0	0	0	0	-0	0	1.0
61	0	0	0	0	-0	0	1.0
62	0	0	0	0	-0	0	1.0
63	0	0	0	0	-0	0	1.0
64	0	0	0	0	-0	0	1.0
[Hips]
58	6.941933632	8.712192535	-4.044607162	-175.8499451	-110.0927124	181.2593384	1.0
59	7.151109695	8.678799629	-4.260486603	-176.978363	-111.0529022	181.9653168	1.0
60	7.388670444	8.644104004	-4.501657009	-175.528244	-111.0743866	179.9954376	1.0
61	7.661470413	8.598779678	-4.75345993	-173.8738403	-111.2685471	177.7689819	1.0
62	7.956237316	8.500041008	-5.022111416	-172.9463043	-111.6428528	176.0049133	1.0
63	8.248056412	8.390558243	-5.296515942	-171.2108917	-112.4746704	172.3524323	1.0
64	8.5085783	8.376301765	-5.509115219	-172.1729126	-113.6003723	171.6380157	1.0
[Spine]
58	0	0.7478299737	0	-12.13119125	5.942000866	-91.21772766	1.0
59	0	0.7478299737	0	-11.61272335	6.660903454	-91.02646637	1.0
60	0	0.7478299737	0	-10.77454185	7.272246838	-90.17282104	1.0
61	0	0.7478299737	0	-8.900338173	6.62996769	-89.04563904	1.0
62	0	0.7478299737	0	-6.6033535	5.659971714	-88.3769989	1.0
63	0	0.7478299737	0	-3.670753479	3.581728935	-87.57192993	1.0
64	0	0.7478299737	0	-1.520277858	2.674655676	-86.21417999	1.0
[Spine1]
58	0	2.049309969	0	7.14339447	2.138184547	-1.515228271	1.0
59	0	2.049309969	0	7.686959267	2.410306692	-1.839520097	1.0
60	0	2.049309969	0	7.327550411	2.449899197	-1.478840709	1.0
61	0	2.049309969	0	6.634401798	2.260897875	-1.252017498	1.0
62	0	2.049309969	0	5.871666431	1.881449103	-0.6875759959	1.0
63	0	2.049309969	0	5.841179848	1.291006684	0.2409020513	1.0
64	0	2.049309969	0	5.463521957	1.077476025	-2.099313736	1.0
[Neck]
58	0	2.231709957	0	-7.185228348	-4.222195625	-87.81656647	1.0
59	0	2.231709957	0	-7.233622551	-4.611352921	-88.5486145	1.0
60	0	2.231709957	0	-7.819552422	-4.17931509	-89.3523941	1.0
61	0	2.231709957	0	-7.425383091	-4.033073425	-89.94133759	1.0
62	0	2.231709957	0	-7.161090374	-3.219198227	-90.0914917	1.0
63	0	2.231709957	0	-7.295298576	-1.956702471	-89.51062012	1.0
64	0	2.231709957	0	-8.14409256	-1.708750606	-86.754776	1.0
[Head]
58	0	1.413589954	0.1823999882	-1.697883368	-12.03587914	-89.73924255	1.0
59	0	1.413589954	0.1823999882	-2.694224834	-12.46107101	-89.27639008	1.0
60	0	1.413589954	0.1823999882	-2.359253883	-12.02272606	-89.37835693	1.0
61	0	1.413589954	0.1823999882	-2.497187853	-11.80261803	-89.93948364	1.0
62	0	1.413589954	0.1823999882	-2.983709574	-10.91915894	-90.18649292	1.0
63	0	1.413589954	0.1823999882	-3.086174488	-9.464809418	-91.64347839	1.0
64	0	1.413589954	0.1823999882	-2.754482031	-9.162563324	-92.50341797	1.0
[LeftShoulder]
58	0.3649300039	1.825889945	-0.04271000251	-3.933651447	-8.252968788	9.411239624	1.0
59	0.3649300039	1.825889945	-0.04271000251	-5.272514343	-8.27854538	9.226050377	1.0
60	0.3649300039	1.825889945	-0.04271000251	-6.723145485	-6.909893513	9.107757568	1.0
61	0.3649300039	1.825889945	-0.04271000251	-7.52946806	-6.753335953	8.547531128	1.0
62	0.3649300039	1.825889945	-0.04271000251	-8.784747124	-6.928534985	7.796300411	1.0
63	0.3649300039	1.825889945	-0.04271000251	-9.433279991	-6.703046799	4.966354847	1.0
64	0.3649300039	1.825889945	-0.04271000251	-10.8368845	-7.417425156	5.021640778	1.0
[LeftArm]
58	1.24003005	0	0	1.4190979	25.39600754	-60.12838745	1.0
59	1.24003005	0	0	0.8128520846	24.05394936	-57.9741745	1.0
60	1.24003005	0	0	2.974038839	22.03058052	-58.77381134	1.0
61	1.24003005	0	0	6.176361561	20.34503555	-61.09519958	1.0
62	1.24003005	0	0	10.78800488	18.80513191	-63.40948486	1.0
63	1.24003005	0	0	15.44082642	15.78973007	-64.01039124	1.0
64	1.24003005	0	0	24.37966537	12.85045815	-67.75468445	1.0
[LeftForeArm]
58	2.847419977	0	0	-0.8974206448	-2.827387571	-12.69442844	1.0
59	2.847419977	0	0	-0.871006012	-0.9235858917	-11.87331581	1.0
60	2.847419977	0	0	-4.125492573	-0.6187647581	-9.762308121	1.0
61	2.847419977	0	0	-3.533555984	-0.7258266211	-9.103587151	1.0
62	2.847419977	0	0	-6.694657326	-2.626585484	-9.183511734	1.0
63	2.847419977	0	0	-6.051517487	-4.744842052	-10.59058857	1.0
64	2.847419977	0	0	-7.304573536	-7.273202896	-8.101947784	1.0
[LeftHand]
58	2.258270025	0	0	-1.212185144	0.5490180254	-0.07992604375	1.0
59	2.258270025	0	0	-0.9439133406	0.5494288802	4.741173744	1.0
60	2.258270025	0	0	-4.094399452	1.337316155	7.20494318	1.0
61	2.258270025	0	0	-3.418421507	1.918062687	10.31947231	1.0
62	2.258270025	0	0	-6.835981846	1.824715018	4.373216152	1.0
63	2.258270025	0	0	-6.487342358	0.2872959077	2.135026455	1.0
64	2.258270025	0	0	-7.806314945	-0.5200206637	-3.343141079	1.0
[RightShoulder]
58	-0.3646599948	1.825889945	-0.04271000251	-8.611897469	10.11047173	-184.9014282	1.0
59	-0.3646599948	1.825889945	-0.04271000251	-8.696818352	11.80098438	-183.9529419	1.0
60	-0.3646599948	1.825889945	-0.04271000251	-10.65911102	11.39912128	-184.6925964	1.0
61	-0.3646599948	1.825889945	-0.04271000251	-10.15752125	11.90653992	-184.0148315	1.0
62	-0.3646599948	1.825889945	-0.04271000251	-8.856993675	12.39041424	-182.8347473	1.0
63	-0.3646599948	1.825889945	-0.04271000251	-9.307819366	12.62728596	-182.2906189	1.0
64	-0.3646599948	1.825889945	-0.04271000251	-12.3223114	9.590581894	-180.3574066	1.0
[RightArm]
58	-1.24003005	0	0	62.11457825	28.64240646	-105.4886169	1.0
59	-1.24003005	0	0	12.10007286	30.79679108	-112.1263123	1.0
60	-1.24003005	0	0	69.97357941	24.71770287	-103.5435333	1.0
61	-1.24003005	0	0	7.239995003	27.2089138	-109.0431824	1.0
62	-1.24003005	0	0	6.266569138	25.89053154	-108.7289352	1.0
63	-1.24003005	0	0	4.446827888	23.23159027	-107.5360489	1.0
64	-1.24003005	0	0	0.6198607683	17.84267426	-106.4330139	1.0
[RightForeArm]
58	-2.847419977	0	0	19.88791275	48.49607468	188.0082092	1.0
59	-2.847419977	0	0	53.9444313	23.26486969	236.5868683	1.0
60	-2.847419977	0	0	8.72049427	48.81387329	172.6586151	1.0
61	-2.847419977	0	0	52.68854523	19.29553413	233.4692383	1.0
62	-2.847419977	0	0	49.33948135	18.18400574	228.573761	1.0
63	-2.847419977	0	0	46.07345581	14.84517479	223.4466553	1.0
64	-2.847419977	0	0	44.42092514	8.949136734	218.7945862	1.0
[RightHand]
58	-2.258270025	0	0	18.01950264	13.19288635	166.8352966	1.0
59	-2.258270025	0	0	40.47987366	15.67705727	167.3850403	1.0
60	-2.258270025	0	0	11.95324516	12.20146179	167.0160065	1.0
61	-2.258270025	0	0	41.29326248	15.45261765	168.1959839	1.0
62	-2.258270025	0	0	39.60993195	14.71938515	168.735611	1.0
63	-2.258270025	0	0	38.82024002	14.03465462	169.3421783	1.0
64	-2.258270025	0	0	40.10706711	13.29726219	170.193634	1.0
[LeftUpLeg]
58	0.9119900465	0	0	-8.607449532	2.703436375	90.75223541	1.0
59	0.9119900465	0	0	-10.75961494	4.418956757	91.10379791	1.0
60	0.9119900465	0	0	-12.59515476	3.096001625	92.67655945	1.0
61	0.9119900465	0	0	-15.14230919	-0.6756075621	95.59638977	1.0
62	0.9119900465	0	0	-18.89111519	-3.299752951	98.7715683	1.0
63	0.9119900465	0	0	-23.99101257	-2.001467705	101.6675034	1.0
64	0.9119900465	0	0	-27.98661232	1.660755992	101.7942963	1.0
[LeftLeg]
58	0	-4.371409893	0	-3.285393953	0.96505481	87.01626587	1.0
59	0	-4.371409893	0	-1.972880721	-1.102741838	87.06311035	1.0
60	0	-4.371409893	0	-2.128726482	1.057185888	87.09489441	1.0
61	0	-4.371409893	0	-1.000887632	4.57090044	86.85945129	1.0
62	0	-4.371409893	0	3.007893324	8.328783035	86.23355103	1.0
63	0	-4.371409893	0	12.47656631	9.373347282	85.0715332	1.0
64	0	-4.371409893	0	24.45799255	7.624787807	83.71060181	1.0
[LeftFoot]
58	0	-3.918009996	0	-92.66449738	111.0288696	-61.77611542	1.0
59	0	-3.918009996	0	-91.49086761	110.5299988	-62.50927734	1.0
60	0	-3.918009996	0	-87.9686203	109.5982513	-61.44962311	1.0
61	0	-3.918009996	0	-80.50518036	107.1705627	-54.33095551	1.0
62	0	-3.918009996	0	-75.95355225	103.0994339	-47.09261322	1.0
63	0	-3.918009996	0	-79.52186584	102.6320419	-43.25799561	1.0
64	0	-3.918009996	0	-80.18024445	106.6388092	-37.05835342	1.0
[LeftToeBase]
58	0	-0.5927900076	1.367989898	0	0	0	1.0
59	0	-0.5927900076	1.367989898	0	0	0	1.0
60	0	-0.5927900076	1.367989898	0	0	0	1.0
61	0	-0.5927900076	1.367989898	0	0	0	1.0
62	0	-0.5927900076	1.367989898	0	0	0	1.0
63	0	-0.5927900076	1.367989898	0	0	0	1.0
64	0	-0.5927900076	1.367989898	0	0	0	1.0
[RightUpLeg]
58	-0.9119900465	0	0	9.436649323	-14.44409752	87.59661865	1.0
59	-0.9119900465	0	0	12.56529808	-9.92654705	88.60673523	1.0
60	-0.9119900465	0	0	12.23291397	-5.851719856	90.47380829	1.0
61	-0.9119900465	0	0	9.526124954	-4.542817116	92.36965179	1.0
62	-0.9119900465	0	0	5.258172989	-4.671235561	95.19570923	1.0
63	-0.9119900465	0	0	0.08085238934	-5.356975555	99.44335175	1.0
64	-0.9119900465	0	0	-2.937813282	-6.052394867	100.5678558	1.0
[RightLeg]
58	0	-4.371409893	0	17.94374847	4.550518036	84.66005707	1.0
59	0	-4.371409893	0	10.92242146	4.166697979	85.95194244	1.0
60	0	-4.371409893	0	8.961410522	2.860460758	86.94522095	1.0
61	0	-4.371409893	0	11.60971832	4.181061268	88.19734192	1.0
62	0	-4.371409893	0	17.27486801	5.339962959	87.39621735	1.0
63	0	-4.371409893	0	25.53692245	4.580936432	84.21994781	1.0
64	0	-4.371409893	0	31.31791496	5.457180977	85.68275452	1.0
[RightFoot]
58	0	-3.918009996	0	55.53485489	53.19638062	89.68954468	1.0
59	0	-3.918009996	0	52.62253571	52.88089752	88.04595947	1.0
60	0	-3.918009996	0	50.0341301	52.38812637	87.36372375	1.0
61	0	-3.918009996	0	43.40813446	52.3712616	84.58739471	1.0
62	0	-3.918009996	0	33.9140625	53.88529968	80.77520752	1.0
63	0	-3.918009996	0	30.0402298	55.01844025	81.13287354	1.0
64	0	-3.918009996	0	24.38643646	54.97049332	77.60450745	1.0
[RightToeBase]
58	0	-0.5927900076	1.367989898	0	0	0	1.0
59	0	-0.5927900076	1.367989898	0	0	0	1.0
60	0	-0.5927900076	1.367989898	0	0	0	1.0
61	0	-0.5927900076	1.367989898	0	0	0	1.0
62	0	-0.5927900076	1.367989898	0	0	0	1.0
63	0	-0.5927900076	1.367989898	0	0	0	1.0
64	0	-0.5927900076	1.367989898	0	0	0	1.0
[EndOfFile]
